<?xml version="1.0" encoding="utf-8"?><!DOCTYPE svg ><svg width="1000px" height="1000px" xmlns="http://www.w3.org/2000/svg"><filter id="blur" x="-4%" y="-4%" width="108%" height="108%"><feGaussianBlur in="SourceGraphic" stdDeviation="2"/></filter><rect style="fill: rgb(243,240,248);" width="100%" height="100%"/><path filter="url(#blur)" d="M 17.001119888439 15.117473082617 C 21.830983493109 10.287609477947, 980.29415649295 11.929763103535, 983.9648528325 15.600459443084 C 987.63554917204 19.271155782634,  991.78923187206 989.08450825345, 988.3117300767 992.56201004881 C 984.83422828134 996.03951184417, 20.720114864035 985.80020100227, 16.663029436112 981.74311557435 C 12.605944008189 977.68603014642, 12.171256283769 19.947336687287, 17.001119888439 15.117473082617"  style="fill:rgb(242,241,248);"/><path filter="url(#blur)" d="M 36.620412239697 32.563037019958 C 47.023938444156 22.159510815498, 957.55361308581 25.696709725015, 965.4602930012 33.603389640404 C 973.36697291658 41.510069555793,  982.31400545242 976.48803077792, 974.82346658521 983.97856964513 C 967.332927718 991.46910851234, 44.631127417131 969.41363295889, 35.892165405385 960.67467094714 C 27.153203393639 951.9357089354, 26.216886035238 42.966563224417, 36.620412239697 32.563037019958"  style="fill:rgb(242,242,248);"/><path filter="url(#blur)" d="M 59.261075613049 52.695217803649 C 76.096608457665 35.859684959032, 931.31102599397 41.583766126202, 944.10603095587 54.37877108811 C 956.90103591778 67.173776050019,  971.37959416415 961.95169577117, 959.25801051603 974.07327941929 C 947.13642686791 986.19486306741, 72.224435903403 950.50353343683, 58.082588313926 936.36168584735 C 43.940740724448 922.21983825787, 42.425542768433 69.530750648265, 59.261075613049 52.695217803649"  style="fill:rgb(242,243,248);"/><path filter="url(#blur)" d="M 85.388401145897 75.927754428028 C 109.64646965325 51.669685920671, 901.02708048998 59.917429213172, 919.46321255557 78.353561278764 C 937.89934462117 96.789693344355,  958.76128353749 945.17676517337, 941.2954742122 962.64257449867 C 923.8296648869 980.10838382397, 104.06711389656 928.68127858837, 83.690336350382 908.30450104219 C 63.313558804202 887.92772349601, 61.13033263854 100.18582293538, 85.388401145897 75.927754428028"  style="fill:rgb(243,244,248);"/><path filter="url(#blur)" d="M 115.5393348108 102.73810169256 C 148.36300947296 69.914427030401, 866.07940737839 81.074476415536, 891.02540012163 106.02046915878 C 915.97139286487 130.96646190202,  944.19975307433 925.81849526352, 920.56670731757 949.45154102027 C 896.93366156082 973.08458677703, 140.81356430067 903.49839649325, 113.24167758445 875.92650977703 C 85.669790868238 848.35462306082, 82.715660148644 135.56177635472, 115.5393348108 102.73810169256"  style="fill:rgb(244,245,247);"/><path filter="url(#blur)" d="M 150.33351226011 133.67724243583 C 193.04189642491 90.96885827103, 825.7497926076 105.48970888706, 858.20816457285 137.94808085231 C 890.6665365381 170.40645281756,  927.39574691983 903.47905178755, 896.64571032118 934.2290883862 C 865.89567372252 964.97912498486, 183.218968067 874.43735055548, 147.34392536857 838.56230785704 C 111.46888267014 802.68726515861, 107.6251280953 176.38562660064, 150.33351226011 133.67724243583"  style="fill:rgb(244,246,247);"/><path filter="url(#blur)" d="M 190.4859930366 169.38101085357 C 244.60133196745 115.26567192272, 779.20941716212 133.66488715921, 820.33707474957 174.79254474665 C 861.46473233702 215.9202023341,  908.00392381755 877.69933401627, 869.04087978734 916.66237804649 C 830.07783575712 955.6254220767, 232.15480401336 840.90090354329, 186.69791931144 795.44401884138 C 141.24103460953 749.98713413946, 136.37065410575 223.49634978442, 190.4859930366 169.38101085357"  style="fill:rgb(245,247,247);"/><path filter="url(#blur)" d="M 236.82195585268 210.58315960764 C 304.10092058355 143.30419487676, 725.50182389803 166.17904288526, 776.6338370935 217.31105608072 C 827.76585028896 268.44306927619,  885.62575995751 847.94953970822, 837.18490535128 896.39039431445 C 788.74405074506 944.83124892068, 288.62675869545 802.19984369123, 232.11242832152 745.6855133173 C 175.59809794758 689.17118294336, 169.5429911218 277.86212433851, 236.82195585268 210.58315960764"  style="fill:rgb(246,247,247);"/><path filter="url(#blur)" d="M 290.29365694243 258.13043926983 C 372.76344584653 175.66065036573, 663.52326127128 203.70037859312, 726.20030083839 266.37741816024 C 788.87734040551 329.05445772735,  859.80135886303 813.61827707674, 800.42311085208 872.99652508769 C 741.04486284113 932.37477309864, 353.79539439858 757.53882062195, 284.52077171914 688.26419794251 C 215.2461490397 618.98957526306, 207.82386803833 340.60022817393, 290.29365694243 258.13043926983"  style="fill:rgb(246,247,247);"/><path filter="url(#blur)" d="M 352 313 C 452 213, 592 247, 668 323 C 744 399,  830 774, 758 846 C 686 918, 429 706, 345 622 C 261 538, 252 413, 352 313"  style="fill: rgb(247,247,247);"/></svg>